<?xml version="1.0" encoding="UTF-8" standalone="no"?>
<!DOCTYPE svg PUBLIC "-//W3C//DTD SVG 1.1//EN" "http://www.w3.org/Graphics/SVG/1.1/DTD/svg11.dtd">
<svg width="100%" height="100%" viewBox="0 0 512 512" version="1.1" xmlns="http://www.w3.org/2000/svg" xmlns:xlink="http://www.w3.org/1999/xlink" xml:space="preserve" xmlns:serif="http://www.serif.com/" style="fill-rule:evenodd;clip-rule:evenodd;stroke-linejoin:round;stroke-miterlimit:2;">
    <g transform="matrix(1,0,0,1,-25.754473,-32.267306)">
        <g id="path31" transform="matrix(9.324296,0,0,9.324296,-11529.22989,638.846218)">
            <path d="M1259.898,-40.644C1258.651,-39.924 1257.616,-40.89 1256.208,-40.591C1254.801,-40.292 1254.248,-38.988 1252.817,-39.139C1251.386,-39.289 1251.116,-40.679 1249.801,-41.264C1248.487,-41.849 1247.273,-41.12 1246.204,-42.083C1245.134,-43.046 1245.733,-44.329 1245.013,-45.575C1244.294,-46.821 1242.883,-46.945 1242.584,-48.352C1242.285,-49.76 1243.523,-50.446 1243.674,-51.877C1243.824,-53.308 1242.756,-54.237 1243.341,-55.552C1243.926,-56.866 1245.331,-56.693 1246.294,-57.763C1247.257,-58.832 1246.939,-60.212 1248.185,-60.931C1249.431,-61.651 1250.466,-60.685 1251.874,-60.984C1253.281,-61.283 1253.834,-62.587 1255.265,-62.436C1256.696,-62.286 1256.967,-60.896 1258.281,-60.311C1259.596,-59.725 1260.809,-60.455 1261.879,-59.492C1262.948,-58.529 1262.35,-57.246 1263.069,-56C1263.788,-54.754 1265.199,-54.63 1265.498,-53.223C1265.797,-51.815 1264.559,-51.129 1264.408,-49.698C1264.258,-48.267 1265.327,-47.338 1264.741,-46.023C1264.156,-44.709 1262.751,-44.881 1261.788,-43.812C1260.825,-42.743 1261.144,-41.363 1259.898,-40.644Z" style="fill:white;fill-rule:nonzero;"/>
        </g>
        <g id="rect32" transform="matrix(0,-2.834646,-2.834646,0,-9,-92.250003)">
            <rect x="-211.384" y="-182.015" width="71.147" height="71.147" style="fill:white;"/>
        </g>
        <g id="path8" transform="matrix(2.834646,0,0,2.834646,-9,-92.250003)">
            <path d="M135.336,55.006C134.654,54.998 133.972,55.01 133.289,55.041L133.623,62.383C134.709,62.333 135.8,62.345 136.887,62.418C136.887,62.418 136.888,62.418 136.889,62.418C140.132,62.636 143.34,63.416 146.295,64.723L149.267,58.002C145.503,56.337 141.466,55.36 137.381,55.086C136.7,55.04 136.019,55.013 135.336,55.006ZM125.262,56.285C121.231,57.359 117.416,59.08 113.938,61.291C112.896,61.953 111.882,62.66 110.9,63.406L115.347,69.256C116.166,68.634 117.011,68.045 117.879,67.494C120.76,65.663 123.899,64.254 127.155,63.387L125.262,56.285ZM156.324,62.178L151.859,68.015C152.898,68.81 153.88,69.681 154.797,70.617C154.797,70.617 154.798,70.617 154.799,70.617C156.907,72.768 158.673,75.285 160.033,78.012L166.612,74.732C164.924,71.348 162.723,68.203 160.049,65.475L160.047,65.472C158.888,64.289 157.643,63.186 156.324,62.178ZM105,68.732C102.653,71.226 100.58,73.94 98.76,76.789L104.953,80.744C106.549,78.246 108.348,75.897 110.351,73.768L105,68.732ZM169.467,82.277L162.371,84.193C162.89,86.115 163.257,88.076 163.463,90.049C163.706,92.449 163.652,94.843 163.237,97.125L170.467,98.444C171.025,95.38 171.078,92.293 170.774,89.295C170.774,89.294 170.774,89.287 170.774,89.285C170.526,86.916 170.085,84.57 169.467,82.277ZM161.235,103.051C160.336,104.81 159.176,106.473 157.824,108C156.313,109.708 154.565,111.26 152.662,112.662L157.021,118.578C159.274,116.918 161.416,115.032 163.328,112.871C165.048,110.928 166.571,108.765 167.781,106.395L161.235,103.051ZM146.859,116.314C146.492,116.516 146.092,116.724 145.664,116.945C141.94,118.856 137.997,120.434 133.94,121.814L136.306,128.771C140.61,127.307 144.894,125.601 149.033,123.477C149.038,123.475 149.042,123.473 149.047,123.471C149.471,123.251 149.923,123.018 150.397,122.758L146.859,116.314ZM127.103,123.93C122.49,125.233 117.799,126.341 113.061,127.346L114.586,134.535C119.433,133.507 124.284,132.362 129.102,131.002L127.103,123.93ZM105.928,128.783L104.734,129.012L103.36,129.272C99.511,129.914 95.585,130.41 91.609,130.929L92.562,138.219C96.522,137.702 100.54,137.194 104.586,136.518C104.611,136.513 104.637,136.509 104.662,136.504L106.104,136.233C106.106,136.232 106.109,136.231 106.111,136.23L107.311,136.002L105.928,128.783ZM84.279,131.92C79.374,132.626 74.413,133.456 69.475,134.678L71.24,141.813C75.817,140.68 80.535,139.883 85.326,139.194L84.279,131.92ZM62.09,136.871C60.018,137.604 57.964,138.45 55.959,139.443C53.216,140.802 50.548,142.447 48.109,144.471L52.803,150.127C54.72,148.536 56.895,147.183 59.219,146.031L59.221,146.029C60.927,145.185 62.71,144.448 64.541,143.801L62.09,136.871ZM42.459,150.519C41.17,152.327 40.09,154.266 39.222,156.291C37.906,159.361 37.098,162.577 36.674,165.787L43.959,166.75C44.308,164.111 44.964,161.548 45.977,159.188C45.977,159.187 45.978,159.186 45.979,159.186C46.644,157.631 47.471,156.149 48.444,154.785L42.459,150.519ZM43.651,173.488L36.305,173.715C36.336,174.714 36.393,175.708 36.473,176.695C36.475,176.721 36.478,176.747 36.48,176.773C36.504,177.003 36.518,177.52 36.641,178.244C37.22,182.091 38.364,185.874 40.115,189.402L46.697,186.135C45.303,183.326 44.369,180.261 43.899,177.115C43.894,177.082 43.888,177.049 43.883,177.016C43.873,176.961 43.849,176.618 43.799,176.106C43.728,175.23 43.677,174.357 43.651,173.488ZM106.09,190.848L78.52,193.435L94.644,215.979L106.09,190.848ZM50.233,191.612L44.533,196.25C45.001,196.825 45.48,197.371 45.965,197.896C45.965,197.897 45.966,197.898 45.967,197.899C49.182,201.375 53.059,204.191 57.314,206.207L60.463,199.565C57.041,197.943 53.919,195.672 51.363,192.908C50.965,192.477 50.586,192.046 50.233,191.612ZM66.664,201.74L64.957,208.889C65.841,209.1 66.725,209.274 67.604,209.418C67.604,209.418 67.605,209.418 67.606,209.418C72.068,210.147 76.66,210.087 81.117,209.193L79.672,201.988C76.112,202.702 72.398,202.753 68.793,202.164L68.791,202.164C68.068,202.045 67.359,201.906 66.664,201.74Z" style="fill:white;fill-rule:nonzero;"/>
        </g>
    </g>
</svg>
