<?xml version="1.0" encoding="UTF-8" standalone="no"?>
<svg
   xmlns:dc="http://purl.org/dc/elements/1.1/"
   xmlns:cc="http://creativecommons.org/ns#"
   xmlns:rdf="http://www.w3.org/1999/02/22-rdf-syntax-ns#"
   xmlns:svg="http://www.w3.org/2000/svg"
   xmlns="http://www.w3.org/2000/svg"
   xmlns:sodipodi="http://sodipodi.sourceforge.net/DTD/sodipodi-0.dtd"
   xmlns:inkscape="http://www.inkscape.org/namespaces/inkscape"
   version="1.1"
   id="svg2"
   xml:space="preserve"
   width="144"
   height="144"
   viewBox="0 0 144 144"
   sodipodi:docname="lsw wtemplate 2.svg"
   inkscape:version="1.0.1 (3bc2e813f5, 2020-09-07)"><metadata
     id="metadata8"><rdf:RDF><cc:Work
         rdf:about=""><dc:format>image/svg+xml</dc:format><dc:type
           rdf:resource="http://purl.org/dc/dcmitype/StillImage" /><dc:title></dc:title></cc:Work></rdf:RDF></metadata><defs
     id="defs6"><clipPath
       clipPathUnits="userSpaceOnUse"
       id="clipPath20"><path
         d="M 0,108 H 108 V 0 H 0 Z"
         id="path18" /></clipPath><clipPath
       clipPathUnits="userSpaceOnUse"
       id="clipPath30"><path
         d="M 0,108 H 108 V 0 H 0 Z"
         id="path28" /></clipPath><clipPath
       clipPathUnits="userSpaceOnUse"
       id="clipPath38"><path
         d="M -0.0706177,108.071 H 108.071 V -0.0706635 H -0.0706177 Z"
         id="path36" /></clipPath><clipPath
       clipPathUnits="userSpaceOnUse"
       id="clipPath42"><path
         d="M -0.0352631,108.035 H 108.035 V -0.0353088 H -0.0352631 Z"
         id="path40" /></clipPath><clipPath
       clipPathUnits="userSpaceOnUse"
       id="clipPath46"><path
         d="M -0.0352631,108.035 H 108.035 V -0.0353088 H -0.0352631 Z"
         id="path44" /></clipPath><clipPath
       clipPathUnits="userSpaceOnUse"
       id="clipPath90"><path
         d="M 28,80 H 80 V 28 H 28 Z"
         id="path88" /></clipPath><clipPath
       clipPathUnits="userSpaceOnUse"
       id="clipPath106"><path
         d="M 36,72 H 72 V 36 H 36 Z"
         id="path104" /></clipPath><clipPath
       clipPathUnits="userSpaceOnUse"
       id="clipPath122"><path
         d="M 27.9,72.1 H 80.1 V 35.9 H 27.9 Z"
         id="path120" /></clipPath><clipPath
       clipPathUnits="userSpaceOnUse"
       id="clipPath138"><path
         d="M 35.9,80.1 H 72.1 V 27.9 H 35.9 Z"
         id="path136" /></clipPath><clipPath
       clipPathUnits="userSpaceOnUse"
       id="clipPath154"><path
         d="M 31.9,76.1 H 76.1 V 31.9 H 31.9 Z"
         id="path152" /></clipPath><clipPath
       clipPathUnits="userSpaceOnUse"
       id="clipPath170"><path
         d="M 18,90 H 90 V 18 H 18 Z"
         id="path168" /></clipPath></defs><sodipodi:namedview
     pagecolor="#ffffff"
     bordercolor="#666666"
     borderopacity="1"
     objecttolerance="10"
     gridtolerance="10"
     guidetolerance="10"
     inkscape:pageopacity="0"
     inkscape:pageshadow="2"
     inkscape:window-width="1823"
     inkscape:window-height="1008"
     id="namedview4"
     showgrid="false"
     inkscape:zoom="4.1086868"
     inkscape:cx="68.693535"
     inkscape:cy="62.73747"
     inkscape:window-x="-7"
     inkscape:window-y="0"
     inkscape:window-maximized="0"
     inkscape:current-layer="g10"
     inkscape:document-rotation="0" /><g
     id="g10"
     inkscape:groupmode="layer"
     inkscape:label="adaptive-icon"
     transform="matrix(1.3333333,0,0,-1.3333333,0,144)"><path
       d="M -132.94759,-0.77445198 H -24.947589 V 107.22555 H -132.94759 Z"
       style="fill:#ffffff;fill-opacity:1;fill-rule:nonzero;stroke:none"
       id="path12" /><path
       style="fill:#ffffff;stroke-width:0.00556553"
       d="m 48.870752,69.716157 c -0.614813,0.044 -1.166602,0.404854 -1.450475,0.948363 -0.08728,0.16713 -0.143854,0.34178 -0.175757,0.542646 l -0.01282,0.08066 v 4.115708 4.115721 l 0.01315,0.08631 c 0.04932,0.323481 0.180773,0.61498 0.389022,0.862662 0.05897,0.07015 0.179783,0.187404 0.252008,0.244626 0.163301,0.129376 0.350034,0.230059 0.550802,0.296958 0.0824,0.02746 0.20637,0.05952 0.230207,0.05952 0.008,0 0.008,0.101894 0.008,1.295385 5.9e-5,1.287291 0.002,1.436 0.01973,1.63766 0.07373,0.83349 0.377175,1.627054 0.877742,2.295782 0.256287,0.342369 0.566186,0.650857 0.910144,0.905955 0.420754,0.312058 0.913762,0.55221 1.412371,0.688002 0.260627,0.07095 0.480266,0.109851 0.795544,0.140665 0.09336,0.0092 2.308164,0.01341 2.465541,0.0052 0.563831,-0.03103 1.111389,-0.171561 1.614012,-0.414345 0.87666,-0.423465 1.588444,-1.130016 2.030069,-2.015165 0.247353,-0.495768 0.402281,-1.044397 0.451904,-1.600107 0.0179,-0.200548 0.01945,-0.336144 0.01961,-1.625962 l 8.7e-5,-1.300375 0.0376,-0.0074 c 0.06549,-0.01151 0.169972,-0.03774 0.243928,-0.06184 0.534721,-0.173963 0.959592,-0.593466 1.131605,-1.117336 0.04189,-0.1272 0.06725,-0.251503 0.07834,-0.382233 0.0052,-0.05223 0.0059,-1.202399 0.0052,-4.151881 -0.0021,-3.869829 -0.0021,-4.082833 -0.01208,-4.143553 -0.04845,-0.314449 -0.168376,-0.59202 -0.362097,-0.83766 -0.06681,-0.08469 -0.221687,-0.235673 -0.309544,-0.301726 -0.26091,-0.196147 -0.540054,-0.309889 -0.873796,-0.356051 -0.06542,-0.0092 -0.369275,-0.0092 -5.173169,-0.0104 -2.806984,-5.15e-4 -5.132425,0.0016 -5.167613,0.0029 z m 5.468081,2.890808 c 0.125884,0.02674 0.227464,0.08158 0.315948,0.170505 0.09254,0.09312 0.149026,0.210526 0.165353,0.344089 0.0029,0.03096 0.0059,0.390286 0.0059,1.043537 v 0.996385 l 0.05988,0.02776 c 0.386058,0.179494 0.708796,0.510921 0.872261,0.895724 0.09659,0.227473 0.138763,0.435298 0.13832,0.68212 -1.92e-4,0.134061 -0.0081,0.217121 -0.03242,0.336994 -0.1212,0.600809 -0.563338,1.101103 -1.152995,1.304788 -0.203367,0.07031 -0.381387,0.100046 -0.598174,0.100162 -0.161555,8.7e-5 -0.296232,-0.01609 -0.446171,-0.05369 -0.682232,-0.170962 -1.202654,-0.727122 -1.31673,-1.407201 -0.03519,-0.209537 -0.02928,-0.450653 0.01588,-0.653952 0.120101,-0.539809 0.499477,-0.997891 1.013073,-1.223149 0.0413,-0.01814 0.0795,-0.03453 0.08481,-0.03636 0.0092,-0.0029 0.0092,-0.0628 0.0104,-1.017948 l 0.002,-1.014557 0.01477,-0.05318 c 0.03096,-0.112158 0.07927,-0.1967 0.156524,-0.274875 0.100285,-0.101311 0.233497,-0.163452 0.376973,-0.175865 0.07604,-0.0074 0.267489,-0.0016 0.314383,0.008 z m 3.481291,9.782773 c 0,0.799814 -0.002,1.321786 -0.0059,1.378857 -0.03825,0.625499 -0.255482,1.207191 -0.630993,1.689157 -0.07985,0.102462 -0.125246,0.15374 -0.233591,0.263734 -0.434698,0.44141 -0.988905,0.728262 -1.58694,0.8214 -0.218039,0.03395 -0.167145,0.03264 -1.302335,0.03497 -1.212042,0.002 -1.263082,5.14e-4 -1.509547,-0.04043 -0.901711,-0.152247 -1.690838,-0.748754 -2.105555,-1.591591 -0.06774,-0.13788 -0.106736,-0.230828 -0.152349,-0.364011 -0.09013,-0.263528 -0.142131,-0.531634 -0.159002,-0.821452 -0.0033,-0.05733 -0.0058,-0.599543 -0.0058,-1.376081 l -7e-6,-1.281456 h 3.845785 3.845803 v 1.287023 z"
       id="path872" /><path
       d="m 71.481664,36.334743 h -5.117291 v -5.069295 h -2.630655 v 5.069295 h -5.117293 v 2.573048 h 5.117293 v 5.069301 h 2.630655 v -5.069301 h 5.117291 z"
       style="font-style:normal;font-variant:normal;font-weight:bold;font-stretch:normal;font-size:36.3522px;line-height:1.25;font-family:sans-serif;-inkscape-font-specification:'sans-serif Bold';fill:#ffffff;fill-opacity:1;stroke:none;stroke-width:0.49157"
       id="path969" /><rect
       style="fill:#ffffff;fill-opacity:1;stroke:none;stroke-width:0.154893;stroke-linecap:round;stroke-miterlimit:4;stroke-dasharray:none;stroke-opacity:1"
       id="rect890-5"
       width="20.203955"
       height="16.947168"
       x="33.046047"
       y="-64.671776"
       ry="1.0406145"
       transform="scale(1,-1)" /><rect
       style="fill:#ffffff;fill-opacity:1;stroke:none;stroke-width:0.154893;stroke-linecap:round;stroke-miterlimit:4;stroke-dasharray:none;stroke-opacity:1"
       id="rect890-5-1"
       width="20.203955"
       height="16.947168"
       x="33.046047"
       y="-46.224609"
       ry="1.0406145"
       transform="scale(1,-1)" /><rect
       style="fill:#ffffff;fill-opacity:1;stroke:none;stroke-width:0.154893;stroke-linecap:round;stroke-miterlimit:4;stroke-dasharray:none;stroke-opacity:1"
       id="rect890-5-2"
       width="20.203955"
       height="16.947168"
       x="54.750004"
       y="-64.671776"
       ry="1.0406145"
       transform="scale(1,-1)" /></g></svg>
